<svg xmlns="http://www.w3.org/2000/svg" width="100" height="100"><path style="stroke:none;fill-rule:nonzero;fill:#fff;fill-opacity:1" d="M35.582 93.672A4 4 0 0 0 38 90V79.2c0-.395.031-.805.082-1.22-.027.008-.055.012-.082.02h-7.2c-3 0-5.6-1.2-6.8-3.602-1.398-2.597-2-7-5.602-9.398-.597-.398-.199-1 1-1 1.204.2 3.801 1.8 5.403 4 1.8 2.2 3.597 4 6.8 4 4.973 0 7.637-.25 9.243-1.11C42.71 68.114 45.297 66 48 66v-.05c-11.336-.364-18.578-4.134-21.95-9.95-7.331.086-13.71.809-17.355 1.414a41.393 41.393 0 0 1-.3-1.973c3.593-.593 9.683-1.296 16.69-1.43a14.755 14.755 0 0 1-.581-1.699c-7.024-.355-13.082-.078-16.375.196-.04-.664-.094-1.324-.102-1.996 3.297-.274 9.192-.543 16.035-.223-.16-1-.261-2.023-.261-3.086 0-3.402 1.203-7 3.402-10-1-3.402-2.402-10.601.399-13.2 5.402 0 9.199 2.599 11 4.2C42 26.801 45.8 26 50 26c4.2 0 8 .8 11.2 2.2 1.8-1.598 5.6-4.2 11-4.2 3 2.8 1.402 10 .402 13.2 2.199 3 3.398 6.402 3.199 10 0 .968-.09 1.902-.223 2.82 7-.344 13.055-.07 16.41.203-.004.672-.066 1.332-.101 1.996-3.344-.274-9.551-.559-16.719-.176-.18.672-.395 1.324-.648 1.96 7.09.09 13.328.778 17.093 1.376a40.805 40.805 0 0 1-.3 1.976c-3.825-.613-10.344-1.328-17.758-1.367C70.223 61.746 63.113 65.5 52 65.938V66c5.2 0 10 7.8 10 13.2V90a4 4 0 0 0 2.418 3.672C82.738 87.609 96 70.328 96 50 96 24.637 75.367 4 50 4S4 24.637 4 50c0 20.328 13.262 37.61 31.582 43.672Zm0 0" id="surface101075023"/></svg>