<svg xmlns="http://www.w3.org/2000/svg" width="90" height="90"><path style="stroke:none;fill-rule:nonzero;fill:#fff;fill-opacity:1" d="M45 9C25.117 9 9 25.117 9 45s16.117 36 36 36 36-16.117 36-36S64.883 9 45 9ZM31.488 25.21c2.528 0 4.207 1.68 4.207 3.927 0 2.242-1.68 3.925-4.484 3.925C28.684 33.066 27 31.38 27 29.137c0-2.246 1.684-3.926 4.488-3.926ZM36 60h-9V36h9Zm30 0h-8.473V46.883c0-3.625-2.257-4.461-3.105-4.461-.844 0-3.672.555-3.672 4.46V60H42V36h8.754v3.348C51.883 37.395 54.14 36 58.379 36 62.613 36 66 39.348 66 46.883Zm0 0" id="surface100888852"/></svg>