<?xml version="1.0" encoding="UTF-8"?>
<svg xmlns="http://www.w3.org/2000/svg" xmlns:xlink="http://www.w3.org/1999/xlink" viewBox="0 0 90 90" width="90px" height="90px">
<g id="surface100888852">
<path style=" stroke:none;fill-rule:nonzero;fill:rgb(100%,100%,100%);fill-opacity:1;" d="M 45 9 C 25.117188 9 9 25.117188 9 45 C 9 64.882812 25.117188 81 45 81 C 64.882812 81 81 64.882812 81 45 C 81 25.117188 64.882812 9 45 9 Z M 31.488281 25.210938 C 34.015625 25.210938 35.695312 26.890625 35.695312 29.136719 C 35.695312 31.378906 34.015625 33.0625 31.210938 33.0625 C 28.683594 33.066406 27 31.378906 27 29.136719 C 27 26.890625 28.683594 25.210938 31.488281 25.210938 Z M 36 60 L 27 60 L 27 36 L 36 36 Z M 66 60 L 57.527344 60 L 57.527344 46.882812 C 57.527344 43.257812 55.269531 42.421875 54.421875 42.421875 C 53.578125 42.421875 50.75 42.976562 50.75 46.882812 C 50.75 47.441406 50.75 60 50.75 60 L 42 60 L 42 36 L 50.753906 36 L 50.753906 39.347656 C 51.882812 37.394531 54.140625 36 58.378906 36 C 62.613281 36 66 39.347656 66 46.882812 Z M 66 60 "/>
</g>
</svg>
